<?xml version="1.0" standalone="no"?>
<!DOCTYPE svg PUBLIC "-//W3C//DTD SVG 20010904//EN"
 "http://www.w3.org/TR/2001/REC-SVG-20010904/DTD/svg10.dtd">
<svg version="1.0" xmlns="http://www.w3.org/2000/svg"
 width="249.000000pt" height="254.000000pt" viewBox="0 0 249.000000 254.000000"
 preserveAspectRatio="xMidYMid meet">

<g transform="translate(0.000000,254.000000) scale(0.100000,-0.100000)"
fill="#000000" stroke="none">
<path d="M1055 2489 c-131 -19 -313 -83 -428 -150 -285 -169 -481 -441 -562
-779 -22 -92 -30 -297 -16 -403 41 -302 203 -592 437 -778 36 -28 62 -54 59
-58 -4 -3 -38 -4 -77 -2 -69 3 -71 2 -65 -19 4 -17 -4 -32 -35 -62 l-41 -40
36 -36 c33 -33 43 -36 164 -58 70 -12 187 -27 258 -33 72 -6 180 -16 240 -22
200 -20 299 -21 432 -5 70 8 202 22 293 31 91 8 188 17 215 21 64 7 120 7 166
-1 39 -7 60 8 40 28 -6 6 -11 28 -11 49 0 28 -7 47 -26 66 -14 15 -32 39 -41
54 -9 15 -38 39 -65 53 -26 14 -48 28 -48 30 0 1 34 36 76 76 164 160 270 342
330 569 36 133 44 348 19 487 -44 244 -145 447 -312 624 -175 185 -443 323
-697 358 -89 13 -254 12 -341 0z m97 -208 c55 -8 84 -31 93 -72 4 -16 10 -29
15 -29 17 0 41 33 37 50 -3 12 4 23 22 31 14 8 32 20 39 27 23 21 46 17 202
-30 53 -16 159 -66 214 -101 46 -29 47 -32 27 -40 -25 -12 -26 -23 -7 -69 10
-23 22 -34 38 -35 34 -3 48 -29 42 -77 -3 -23 0 -54 7 -71 14 -35 13 -54 -6
-75 -8 -8 -16 -26 -18 -40 -2 -14 -9 -38 -15 -53 -7 -16 -12 -38 -12 -50 1
-21 1 -21 15 -4 7 11 11 26 8 35 -4 10 -2 13 5 8 8 -5 11 3 8 26 -4 30 -3 31
10 13 14 -18 14 -18 14 1 0 15 3 13 14 -9 8 -15 13 -36 11 -48 -3 -15 0 -19
10 -15 8 3 15 1 15 -4 0 -6 -7 -10 -15 -10 -8 0 -15 -4 -15 -10 0 -5 7 -10 16
-10 14 0 14 -1 0 -16 -19 -19 -21 -31 -3 -15 11 8 13 6 11 -12 -1 -12 -3 -26
-3 -30 -1 -5 -6 -5 -11 -2 -6 4 1 -24 15 -60 14 -37 25 -75 24 -84 -1 -9 -4
-6 -10 9 -6 18 -7 11 -3 -24 4 -34 2 -46 -6 -41 -13 8 -4 -37 17 -78 8 -16 12
-31 9 -35 -3 -3 -6 0 -6 7 0 7 -4 10 -10 6 -6 -4 -6 -15 0 -31 6 -14 10 -33 9
-42 0 -14 -2 -13 -10 3 -7 16 -8 14 -4 -9 4 -16 14 -40 24 -52 10 -13 17 -36
16 -53 -1 -17 2 -31 6 -31 4 0 9 -6 12 -13 3 -8 -1 -14 -9 -14 -7 0 -11 4 -8
9 3 4 -1 11 -9 14 -8 3 -18 21 -21 40 -4 19 -20 62 -36 95 -27 57 -29 59 -40
39 -9 -18 -9 -21 0 -15 8 5 11 3 8 -6 -3 -8 1 -29 9 -47 7 -18 11 -38 7 -44
-4 -6 -3 -8 4 -4 6 3 13 2 17 -4 3 -5 1 -10 -4 -10 -6 0 -11 -5 -11 -11 0 -5
5 -7 12 -3 7 4 8 3 4 -5 -10 -15 3 -73 15 -66 5 4 6 0 3 -8 -3 -8 2 -31 10
-52 18 -41 21 -59 6 -34 -34 58 -123 356 -145 484 -17 99 -15 191 5 278 8 37
3 46 -16 27 -12 -12 -44 -3 -44 11 0 5 8 10 18 10 16 1 16 2 0 6 -21 5 -23 14
-6 31 9 9 9 12 -3 12 -11 0 -15 9 -13 34 3 30 0 34 -26 40 -26 5 -29 9 -27 34
2 15 7 34 12 41 5 10 4 12 -3 7 -7 -4 -12 -3 -12 3 0 5 4 12 10 16 5 3 6 13 3
22 -6 15 -7 15 -12 0 -6 -15 -8 -14 -19 4 -11 17 -11 20 0 14 7 -4 1 4 -13 17
-14 14 -29 37 -33 52 -4 15 -11 24 -16 21 -5 -3 -7 1 -4 9 3 9 -6 26 -22 42
l-27 28 -18 -22 c-9 -12 -20 -22 -24 -22 -4 0 -19 -12 -32 -26 -19 -20 -21
-29 -12 -40 8 -10 8 -14 0 -14 -6 0 -11 -5 -11 -11 0 -5 6 -7 13 -3 6 4 3 -3
-9 -15 -11 -12 -37 -24 -59 -27 -34 -4 -37 -2 -32 16 3 11 1 23 -4 26 -5 3 -9
-5 -10 -18 0 -20 -2 -19 -11 7 -5 17 -14 40 -20 52 -6 12 -8 35 -6 52 4 24 -1
34 -18 46 -28 18 -38 6 -24 -30 13 -35 14 -32 -15 -59 -22 -20 -24 -27 -15
-50 14 -37 13 -46 -5 -46 -13 0 -14 -4 -5 -20 6 -11 18 -20 26 -20 10 0 14 -6
11 -14 -3 -8 2 -16 15 -19 34 -9 10 -27 -35 -26 -38 0 -40 1 -19 11 29 14 28
26 -2 26 -27 0 -39 -18 -30 -45 5 -14 4 -15 -4 -4 -6 9 -19 11 -35 7 -14 -3
-38 -1 -53 4 -15 6 -29 8 -32 5 -3 -2 6 -9 19 -14 23 -9 23 -10 2 -10 -15 -1
-30 13 -51 48 -18 28 -40 51 -54 54 -14 4 -28 18 -35 37 -6 16 -25 38 -42 47
-17 10 -31 26 -31 35 0 21 -19 34 -44 29 -57 -9 -120 29 -99 62 4 6 8 22 9 35
1 27 -5 22 73 56 82 36 122 39 136 9 5 -13 16 -23 24 -23 11 0 11 4 -3 19 -13
14 -14 20 -4 28 23 18 72 32 93 26 11 -2 41 -8 67 -12z m443 -231 c-3 -5 -14
-10 -23 -10 -9 0 -27 -12 -39 -27 l-23 -28 17 32 c16 28 27 35 66 42 5 0 5 -3
2 -9z m-9 -124 c3 -7 15 -12 27 -11 43 4 57 -12 57 -65 0 -27 4 -60 9 -73 8
-20 7 -24 -7 -23 -14 1 -17 -8 -17 -47 0 -42 -3 -49 -29 -62 -16 -9 -30 -14
-31 -13 -3 6 -55 186 -69 243 -14 55 -14 61 1 72 17 13 50 2 59 -21z m-645 5
c-7 -5 -12 -10 -11 -12 5 -11 -13 -120 -21 -125 -19 -11 -9 -24 11 -14 16 9
20 8 21 -7 0 -11 3 -13 6 -5 10 25 23 11 18 -19 -4 -19 -2 -28 5 -24 5 3 10
-3 10 -14 0 -11 -4 -23 -10 -26 -6 -4 -5 -13 2 -25 14 -22 6 -36 -14 -24 -7 5
-17 9 -23 10 -5 0 -15 2 -21 2 -7 1 -14 11 -17 23 -3 12 -10 18 -16 14 -7 -4
-11 5 -11 24 0 17 -4 31 -8 31 -14 0 6 138 24 165 10 15 27 31 38 35 24 9 36
3 17 -9z m432 -8 c-7 -3 -13 -10 -13 -16 0 -22 -17 -40 -31 -32 -9 6 -8 10 7
16 17 7 17 8 2 8 -10 1 -18 7 -18 15 0 10 11 14 33 14 17 -1 26 -3 20 -5z m4
-35 c-3 -8 -6 -5 -6 6 -1 11 2 17 5 13 3 -3 4 -12 1 -19z m-424 -20 c-3 -16
-9 -28 -14 -28 -11 0 -11 3 1 36 13 33 20 29 13 -8z m4 -70 c-3 -8 -6 -5 -6 6
-1 11 2 17 5 13 3 -3 4 -12 1 -19z m223 14 c0 -4 -16 -15 -35 -24 -42 -19 -46
-10 -7 14 30 19 42 22 42 10z m20 -27 c-13 -14 -26 -23 -28 -20 -3 3 5 16 18
30 13 14 26 23 28 20 3 -3 -5 -16 -18 -30z m540 -10 c0 -8 -4 -15 -9 -15 -5 0
-14 7 -21 15 -10 13 -9 15 9 15 12 0 21 -6 21 -15z m142 -27 c-7 -7 -12 -8
-12 -2 0 6 3 14 7 17 3 4 9 5 12 2 2 -3 -1 -11 -7 -17z m-1534 -17 c3 -8 -1
-12 -9 -9 -7 2 -15 10 -17 17 -3 8 1 12 9 9 7 -2 15 -10 17 -17z m882 -11 c0
-5 -5 -10 -11 -10 -5 0 -7 5 -4 10 3 6 8 10 11 10 2 0 4 -4 4 -10z m-41 -11
c-17 -11 -39 -12 -39 -1 0 4 12 8 27 9 19 1 22 -1 12 -8z m51 -39 c0 -6 -7
-13 -15 -17 -13 -5 -12 -8 5 -20 15 -11 19 -18 11 -26 -7 -7 -5 -14 7 -23 22
-16 10 -28 -19 -19 -16 6 -18 9 -8 16 11 6 10 9 -4 15 -9 3 -17 14 -17 23 0 9
-5 22 -12 29 -9 9 -6 14 13 21 32 13 39 13 39 1z m400 -70 c-6 -11 -13 -20
-16 -20 -2 0 0 9 6 20 6 11 13 20 16 20 2 0 0 -9 -6 -20z m37 -2 c-3 -8 -6 -5
-6 6 -1 11 2 17 5 13 3 -3 4 -12 1 -19z m383 -14 c0 -9 5 -12 13 -8 6 4 9 4 5
-1 -4 -4 -1 -20 6 -34 16 -31 47 -133 42 -139 -2 -2 -21 28 -41 68 -21 39 -39
69 -42 67 -2 -2 15 -44 38 -93 23 -49 51 -114 64 -144 20 -52 21 -56 4 -56
-10 0 -16 3 -13 7 2 4 -4 13 -14 20 -15 13 -16 12 -4 -3 9 -11 10 -18 2 -23
-8 -5 -6 -14 4 -31 23 -33 25 -32 -36 -25 -4 1 -7 16 -6 34 1 18 -4 48 -9 67
-14 48 -16 103 -3 95 5 -3 10 -3 10 2 0 12 -29 93 -41 115 -15 28 -19 81 -7
95 12 15 28 8 28 -13z m-67 3 c7 4 5 -2 -3 -13 -8 -10 -16 -21 -17 -23 -2 -2
-3 9 -2 25 0 16 3 23 6 16 2 -6 10 -9 16 -5z m-1108 -27 c-10 -11 -22 -20 -28
-20 -5 0 1 9 14 20 31 25 37 25 14 0z m776 -50 c-5 -25 -9 -35 -10 -24 -1 28
11 92 16 79 1 -6 -1 -30 -6 -55z m-411 30 c-8 -5 -19 -10 -25 -10 -5 0 -3 5 5
10 8 5 20 10 25 10 6 0 3 -5 -5 -10z m697 -32 c-3 -8 -6 -5 -6 6 -1 11 2 17 5
13 3 -3 4 -12 1 -19z m-1117 -7 c-5 -11 -15 -23 -21 -27 -6 -3 -3 5 6 20 20
30 30 35 15 7z m-83 -55 c0 -8 -3 -14 -7 -13 -4 1 -65 -41 -136 -94 -71 -53
-149 -109 -174 -123 -25 -15 -36 -20 -25 -11 18 13 339 253 341 255 0 0 1 -6
1 -14z m263 4 c0 -5 -5 -10 -11 -10 -5 0 -7 5 -4 10 3 6 8 10 11 10 2 0 4 -4
4 -10z m630 -106 c-7 -47 -14 -83 -17 -80 -3 2 1 46 8 98 7 51 14 87 17 80 2
-7 -1 -51 -8 -98z m-822 28 c-1 -27 3 -47 10 -50 13 -4 -2 -42 -17 -42 -11 0
-31 78 -31 118 0 25 3 29 20 25 17 -4 20 -13 18 -51z m1422 -55 c0 -34 -4 -66
-8 -72 -10 -14 -42 -18 -42 -6 0 5 -5 22 -12 38 -22 51 -17 81 16 97 17 8 34
12 38 10 4 -3 8 -33 8 -67z m-1497 -10 c8 -5 6 -7 -5 -5 -17 3 -110 -63 -249
-179 -48 -40 -92 -73 -98 -73 -6 0 -11 -4 -11 -10 0 -12 -59 -13 -77 -2 -15
10 -2 68 23 97 8 11 13 14 9 7 -4 -7 -10 -26 -15 -42 -9 -30 -9 -30 18 -15 15
8 108 77 207 154 l180 141 3 -32 c2 -18 9 -36 15 -41z m148 46 c13 -16 12 -17
-3 -4 -10 7 -18 15 -18 17 0 8 8 3 21 -13z m583 -15 c17 -82 18 -103 6 -142
-18 -59 -82 -196 -92 -196 -4 0 -8 -8 -8 -17 0 -10 -4 -24 -9 -32 -7 -11 -12
-3 -21 30 -7 24 -17 50 -23 58 -22 26 -8 301 14 301 5 0 9 -7 9 -15 0 -8 4
-15 8 -15 5 0 14 -11 20 -25 16 -34 32 -31 32 5 0 24 4 30 21 30 15 0 19 4 15
16 -3 9 -4 20 0 25 11 18 22 9 28 -23z m-984 14 c18 -8 24 -31 7 -28 -22 5
-67 25 -67 31 0 7 42 5 60 -3z m260 -91 c0 -11 4 -22 10 -26 12 -8 2 -32 -17
-39 -12 -5 -13 -3 -6 6 6 8 7 22 2 33 -11 28 -11 45 1 45 6 0 10 -9 10 -19z
m840 -200 c-17 -85 -28 -162 -25 -173 8 -22 -3 -58 -16 -58 -18 0 -28 44 -14
60 12 14 51 186 71 315 5 28 10 41 12 30 1 -11 -11 -89 -28 -174z m563 165 c3
3 10 -5 17 -18 10 -20 10 -21 -3 -6 -8 10 -16 15 -19 13 -3 -3 -11 3 -19 12
-12 16 -12 17 2 6 9 -7 18 -10 22 -7z m-1396 -53 c0 -10 -7 -24 -16 -31 -14
-12 -14 -13 3 -7 19 6 19 5 3 -13 -9 -10 -14 -22 -10 -25 3 -4 1 -7 -5 -7 -16
0 -12 49 6 78 17 27 19 27 19 5z m1397 -21 c3 -5 -3 -16 -14 -24 -16 -15 -19
-15 -24 -1 -3 8 -6 23 -6 34 0 16 3 18 19 9 11 -5 22 -14 25 -18z m66 -15 c0
-20 0 -20 -14 -2 -8 11 -12 23 -9 28 8 13 23 -3 23 -26z m-1196 11 c-3 -4 -12
-8 -20 -8 -8 0 -13 4 -10 8 3 5 12 9 20 9 8 0 13 -4 10 -9z m11 -23 c17 -2 36
-3 43 -4 6 0 12 -8 12 -17 0 -8 4 -13 9 -9 5 3 13 0 17 -6 5 -9 -2 -10 -26 -6
-18 4 -56 7 -85 7 -51 0 -52 1 -47 26 4 21 8 24 26 18 11 -3 35 -8 51 -9z
m1141 -7 c5 -7 2 -8 -7 -3 -11 6 -12 5 -1 -6 15 -16 16 -79 1 -79 -8 0 -7 -6
2 -17 13 -15 12 -15 -9 -4 -28 15 -41 43 -23 49 11 4 11 6 0 13 -11 6 -11 12
1 33 15 28 25 32 36 14z m-1151 -68 c-5 -8 -11 -8 -17 -2 -6 6 -7 16 -3 22 5
8 11 8 17 2 6 -6 7 -16 3 -22z m-326 -112 c-7 -13 -14 -18 -16 -11 -3 7 1 22
8 35 7 13 14 18 16 11 3 -7 -1 -22 -8 -35z m450 16 c-9 -12 -6 -14 20 -14 17
0 31 -4 31 -9 0 -17 28 -19 55 -5 37 19 38 18 12 -9 -24 -24 -60 -25 -88 0 -9
7 -22 11 -30 8 -8 -2 -21 -1 -29 4 -12 8 -12 13 4 30 21 23 44 18 25 -5z
m-487 -64 c-8 -13 -5 -28 10 -61 11 -24 22 -38 25 -31 4 10 8 10 19 1 12 -10
11 -14 -6 -26 -11 -8 -20 -21 -20 -29 0 -8 -4 -14 -10 -14 -5 0 -10 11 -10 24
0 12 -12 45 -26 72 -25 47 -25 49 -9 83 15 32 18 34 27 17 8 -14 8 -24 0 -36z
m455 24 c-3 -3 -12 -4 -19 -1 -8 3 -5 6 6 6 11 1 17 -2 13 -5z m313 -24 c0 -5
-2 -10 -4 -10 -3 0 -8 5 -11 10 -3 6 -1 10 4 10 6 0 11 -4 11 -10z m-220 -10
c0 -5 -4 -10 -10 -10 -5 0 -10 5 -10 10 0 6 5 10 10 10 6 0 10 -4 10 -10z
m281 -41 c-5 -13 -10 -19 -10 -12 -1 15 10 45 15 40 3 -2 0 -15 -5 -28z m499
-4 c0 -5 -5 -3 -10 5 -5 8 -10 20 -10 25 0 6 5 3 10 -5 5 -8 10 -19 10 -25z
m17 13 c-3 -8 -6 -5 -6 6 -1 11 2 17 5 13 3 -3 4 -12 1 -19z m-1217 -49 c0 -4
-5 -11 -10 -14 -6 -4 -7 -11 -3 -18 10 -16 4 -102 -13 -173 -8 -34 -15 -85
-16 -113 -3 -77 -18 -61 -19 22 -2 140 9 259 28 321 5 19 6 19 19 1 8 -10 14
-22 14 -26z m1217 15 c-3 -4 0 -19 8 -35 22 -42 17 -50 -5 -9 -23 41 -24 50
-8 50 6 0 9 -3 5 -6z m-490 -46 c-3 -8 -6 -5 -6 6 -1 11 2 17 5 13 3 -3 4 -12
1 -19z m-293 -21 c3 3 6 -4 6 -17 0 -19 2 -20 15 -10 8 7 15 9 15 4 0 -5 5 -2
10 6 8 13 10 12 10 -3 0 -12 4 -16 13 -11 6 5 -4 -9 -23 -29 -33 -35 -35 -36
-45 -17 -6 12 -15 17 -19 13 -5 -4 -7 3 -4 18 3 19 0 25 -15 26 -27 2 -34 12
-17 23 8 5 21 5 31 0 9 -5 19 -6 23 -3z m79 -72 c4 -8 3 -16 -1 -19 -4 -3 -9
4 -9 15 -2 23 3 25 10 4z m-696 -107 c-3 -7 -5 -2 -5 12 0 14 2 19 5 13 2 -7
2 -19 0 -25z m608 -195 c-4 -40 -10 -73 -13 -73 -4 0 -15 7 -24 14 -21 16 -23
44 -4 71 7 11 19 38 27 60 17 53 23 25 14 -72z m124 57 c5 0 6 -12 3 -26 -6
-34 -22 -11 -21 31 1 17 3 22 6 13 2 -10 8 -18 12 -18z"/>
<path d="M990 2191 c0 -5 6 -16 13 -23 19 -21 19 -39 2 -58 -33 -37 11 -108
60 -96 14 4 25 13 25 21 0 8 4 15 9 15 5 0 7 9 4 20 -3 11 -8 20 -12 20 -4 0
-15 13 -24 30 -18 29 -18 29 7 36 31 8 24 33 -8 27 -13 -3 -27 0 -30 6 -9 13
-46 15 -46 2z"/>
<path d="M1040 1950 c0 -5 5 -10 11 -10 5 0 7 5 4 10 -3 6 -8 10 -11 10 -2 0
-4 -4 -4 -10z"/>
<path d="M1137 1903 c-12 -11 -8 -23 8 -23 8 0 15 7 15 15 0 16 -12 20 -23 8z"/>
<path d="M1780 1820 c-12 -8 -11 -10 7 -10 12 0 25 5 28 10 8 13 -15 13 -35 0z"/>
<path d="M1861 1594 c0 -11 3 -14 6 -6 3 7 2 16 -1 19 -3 4 -6 -2 -5 -13z"/>
<path d="M1825 1579 c-11 -17 1 -21 15 -4 8 9 8 15 2 15 -6 0 -14 -5 -17 -11z"/>
<path d="M1888 1453 c5 -21 7 -23 10 -9 2 10 0 22 -6 28 -6 6 -7 0 -4 -19z"/>
<path d="M1960 1079 c0 -5 5 -7 10 -4 6 3 10 8 10 11 0 2 -4 4 -10 4 -5 0 -10
-5 -10 -11z"/>
<path d="M911 1683 c7 -12 15 -20 18 -17 3 2 -3 12 -13 22 -17 16 -18 16 -5
-5z"/>
<path d="M1217 1619 c7 -7 15 -10 18 -7 3 3 -2 9 -12 12 -14 6 -15 5 -6 -5z"/>
<path d="M2035 1591 c-3 -5 -2 -12 3 -15 5 -3 9 1 9 9 0 17 -3 19 -12 6z"/>
<path d="M2099 1333 c5 -10 17 -27 25 -38 14 -17 14 -14 -1 18 -9 20 -21 37
-25 37 -5 0 -4 -8 1 -17z"/>
</g>
</svg>
